inDegrees=no
num_controls=7
num_derivatives=13
num_iterations=42
num_multipliers=7
num_parameters=0
num_slacks=7
num_states=26
objective=0.471851
objective_accelerations=0.057255
objective_balance=0.000571
objective_effort=0.015521
objective_height=0.389519
objective_ligament=0.008985
solver_duration=577.888770
status=Solve_Succeeded
success=true
DataType=double
version=3
OpenSimVersion=4.5
endheader
time	/jointset/ground_pelvis/pelvis_tilt/value	/jointset/ground_pelvis/pelvis_tx/value	/jointset/ground_pelvis/pelvis_ty/value	/jointset/hip_l/hip_flexion_l/value	/jointset/hip_l/hip_adduction_l/value	/jointset/hip_l/hip_rotation_l/value	/jointset/back/lumbar_extension/value	/jointset/patellofemoral_l/patellar_flexion_l/value	/jointset/knee_l/knee_flexion_l/value	/jointset/knee_l/knee_adduction_l/value	/jointset/knee_l/knee_rotation_l/value	/jointset/ankle_l/ankle_angle_l/value	/jointset/subtalar_l/subtalar_angle_l/value	/jointset/ground_pelvis/pelvis_tilt/speed	/jointset/ground_pelvis/pelvis_tx/speed	/jointset/ground_pelvis/pelvis_ty/speed	/jointset/hip_l/hip_flexion_l/speed	/jointset/hip_l/hip_adduction_l/speed	/jointset/hip_l/hip_rotation_l/speed	/jointset/back/lumbar_extension/speed	/jointset/patellofemoral_l/patellar_flexion_l/speed	/jointset/knee_l/knee_flexion_l/speed	/jointset/knee_l/knee_adduction_l/speed	/jointset/knee_l/knee_rotation_l/speed	/jointset/ankle_l/ankle_angle_l/speed	/jointset/subtalar_l/subtalar_angle_l/speed	/forceset/tau_hip_flexion_l	/forceset/tau_hip_adduction_l	/forceset/tau_hip_rotation_l	/forceset/tau_knee_flexion_l	/forceset/tau_ankle_angle_l	/forceset/tau_subtalar_angle_l	/forceset/tau_lumbar_extension	lambda_cid13_p0	lambda_cid13_p1	lambda_cid13_p2	lambda_cid13_p3	lambda_cid13_p4	lambda_cid13_p5	lambda_cid14_p0	/jointset/ground_pelvis/pelvis_tilt/accel	/jointset/ground_pelvis/pelvis_tx/accel	/jointset/ground_pelvis/pelvis_ty/accel	/jointset/hip_l/hip_flexion_l/accel	/jointset/hip_l/hip_adduction_l/accel	/jointset/hip_l/hip_rotation_l/accel	/jointset/back/lumbar_extension/accel	/jointset/patellofemoral_l/patellar_flexion_l/accel	/jointset/knee_l/knee_flexion_l/accel	/jointset/knee_l/knee_adduction_l/accel	/jointset/knee_l/knee_rotation_l/accel	/jointset/ankle_l/ankle_angle_l/accel	/jointset/subtalar_l/subtalar_angle_l/accel	gamma_cid13_p0	gamma_cid13_p1	gamma_cid13_p2	gamma_cid13_p3	gamma_cid13_p4	gamma_cid13_p5	gamma_cid14_p0
1.5	-0.3095847604456082	0.06674077092096073	0.8070396519867147	0.9132234837567902	-0.3511355352238129	-0.07871363192967633	-0.3175393541045968	0.7608265569970873	0.7608265569971358	-0.02197285240096238	-0.16806585471699	0.2739976855299671	0.164251539132543	0.4229183014831862	0.2372792114192946	0.4295551288862094	-2.073755098209039	0.04990154044083476	-0.5617172964501962	0.6234983008774002	-2.058654218463506	-2.058654218463387	-0.22078765629996	0.05517216963399001	-0.5548129190506684	-0.1594199262369705	-0.1194518349031228	0.08008792900782585	-0.00219031534516606	-0.1221327194798299	-0.03807754967111499	-0.01477430444682158	0.1176054971474454	-38.06653184785137	13.23602272991271	-2.567520114168787	0.3323304095103957	-432.292670831108	-25.7122890593689	-12.38923576440075	0.4718683907553444	0.4307395091472724	-0.6709557280708157	-1.053208046276231	0.3244975679049863	-0.2423274582561695	1.374856817042055	-1.047811821833712	-1.047811821833711	-0.1653281081630357	0.3271827145038091	-0.4753659204970657	0.3855233694526758	4.329212232587107e-07	5.803490876074615e-07	-4.625020878550601e-06	-9.564497694217579e-08	9.208232717622373e-07	1.860147920701291e-06	5.907709159324202e-07
1.51	-0.3053320353821611	0.0691347610166856	0.8113008093052499	0.8924348844183527	-0.3506222446460373	-0.08433954449117476	-0.3112375377296173	0.7401898003495131	0.7401898003494544	-0.02419437579490887	-0.1674980800957262	0.268425917259337	0.1626739611581	0.4275499135054148	0.2414771499545476	0.4225812247554592	-2.083647829383818	0.05275891440352882	-0.5634355884863423	0.6367500592198287	-2.068384008406579	-2.068384008406527	-0.2234559729217	0.05837167568419312	-0.5594436053910102	-0.1560608487706793	-0.1152873193755952	0.07859551302938599	-0.001483969936916781	-0.1195017233764258	-0.03747488098901795	-0.0157438426255661	0.1140779883531539	-37.76808789541587	13.4064989386905	-2.368149156826329	0.4574650089552639	-429.4558748642093	-25.68553328393399	-13.21704431541226	0.4473332644295293	0.4080714320128451	-0.724689801447152	-0.9097025346102855	0.2672584698539689	-0.1315251665372446	1.283098107852433	-0.8887122801805249	-0.8887122801904337	-0.3084339974563034	0.3139191311806636	-0.4422880554340556	0.3166533022970238	4.021463924260052e-07	9.336215017302786e-07	-4.384771125274175e-06	-3.558200567716059e-08	9.218108466022831e-07	2.063573651096076e-06	5.806838325967249e-07
1.52	-0.3010352890672094	0.07156948057902272	0.8154894111733038	0.8715568783918596	-0.350080200096767	-0.08998162899108929	-0.3048066512182108	0.7194651158624992	0.719465115862515	-0.02644075246639627	-0.1668987934979198	0.2628107685123824	0.1611310846317338	0.4317225517866046	0.2454251047417471	0.4150440387899619	-2.091636435819836	0.05565233474235085	-0.5649516841322427	0.6493123281626368	-2.076239786335109	-2.076239786335123	-0.2257583118745291	0.06147456497049457	-0.5634890143166064	-0.1524796366212011	-0.1111228038480064	0.07710309705084518	-0.0007776245272634279	-0.1168707272730309	-0.03687221230696874	-0.01671338080448011	0.1105504795589432	-37.46614309445697	13.57479483593839	-2.166638039926817	0.5451068756090528	-426.5624327746736	-25.73715849408484	-14.04306619267305	0.3800736425474922	0.3807427595366214	-0.7836120950202292	-0.6723830985243046	0.3317068431305095	-0.201888180207028	1.236958937117881	-0.6730094189250416	-0.6730094189250484	-0.09213257438086225	0.3078593617235429	-0.3583104375478756	0.4299503060901148	3.699215770415937e-07	1.296629575826326e-06	-4.166053335743855e-06	2.583869160285584e-08	9.147500967575008e-07	2.254094625891973e-06	5.756274936547763e-07
1.53	-0.2966991647120126	0.07404231055380868	0.8195999381168338	0.8506085001529348	-0.3495091485572904	-0.09563828496555166	-0.2982538803010428	0.6986710449194983	0.6986710449197787	-0.02870829157005605	-0.1662692865564831	0.2571578895522436	0.1596249258436864	0.4354175381361995	0.2490862793654909	0.4069776266262112	-2.097713577828991	0.05854886632393305	-0.5662789374528157	0.6610985695882599	-2.082275154137255	-2.082275154137248	-0.2277534900018267	0.06445680493088136	-0.5670099970782743	-0.1487437133180846	-0.1069410667667954	0.07547660512579264	-1.100751522152198e-05	-0.1144437365635989	-0.03640178521175847	-0.01783130716211051	0.1069821300235901	-37.2452036831347	13.83171611276979	-1.990677633246456	0.7990117285951845	-423.9982386465172	-25.70864397253574	-14.86798057326796	0.3515327901360385	0.3506376577469613	-0.8305361145061522	-0.5264810705094439	0.2676712653397427	-0.08244066811756194	1.127963892646833	-0.5240284597506885	-0.524028459747457	-0.2537047089120751	0.2972336695071198	-0.3373934721762312	0.3468399302224247	3.361561530709945e-07	1.669981788643932e-06	-3.970213257693772e-06	8.870197277381105e-08	8.991380019350889e-07	2.430904297864052e-06	5.759163206311836e-07
1.54	-0.2923286261615447	0.07655011884362244	0.823627324871236	0.8296091302302464	-0.348909322712088	-0.1013050728251894	-0.2915875455401437	0.6778255746989449	0.6778255746989336	-0.03099588131143659	-0.1656091917436828	0.2514721205091308	0.1581564116062283	0.4386053908446041	0.2524207677473071	0.3984160009643791	-2.101834772574104	0.06140719589216576	-0.5669780611787445	0.672025096908388	-2.086519641895057	-2.086519641895029	-0.2297684392093959	0.06759213914368253	-0.5700670309079404	-0.1449507265029564	-0.1027593296852789	0.07385011320105507	0.0007556094927356321	-0.112016745854077	-0.0359313581164413	-0.01894923351923853	0.1034137804884506	-37.02129591471903	14.08677445683014	-1.812883266025427	1.018046891130142	-421.388916123496	-25.75649521202239	-15.68761951373178	0.2786469143093738	0.3154055111512209	-0.8826547946364917	-0.281193645715705	0.3240664404608386	-0.07626226127811975	1.065016116018771	-0.3148334100564932	-0.3148334100564878	-0.09608679043526748	0.3384782122064383	-0.2655206511474907	0.4413630084924715	2.451936854288161e-07	2.286248540165039e-06	-3.336233398411947e-06	1.993460331131387e-07	7.87454156379132e-07	2.49691670942751e-06	5.446608632666019e-07
1.55	-0.2879288249887694	0.07908969641883724	0.8275666835775658	0.8085784745431041	-0.3482808319999738	-0.1069783631501082	-0.2848160317340382	0.656946961163862	0.6569469611632966	-0.03330155586290377	-0.1649187376184384	0.2457585095563609	0.1567266903447193	0.4412777126181751	0.2554462884892135	0.3893828133486782	-2.10399402423467	0.06424673703834254	-0.5674438521774239	0.682136556134995	-2.088897226756508	-2.088897226756445	-0.2315014574138984	0.07060165625573268	-0.5725669698782114	-0.1410287396325553	-0.09856158416420038	0.07188657900233654	0.001555438405114989	-0.1100265146831131	-0.03496766465674738	-0.02016027112091764	0.09988210829307367	-36.66408834121273	14.3842137586849	-1.670727072949818	1.094348185581307	-419.1063437887568	-25.83041507205546	-16.49350299781803	0.2499603867219163	0.288947953850848	-0.9245014805333668	-0.1379317783211095	0.2571163993324776	0.004137413939045025	0.9630445991676941	-0.1534331628604453	-0.1534331628551507	-0.2316715339644488	0.2973927709540707	-0.2288804273721363	0.3619442771731245	8.833027616503936e-08	3.182395086279297e-06	-2.19744031292836e-06	3.650418607551533e-07	5.650789458475747e-07	2.435271407911476e-06	4.770609043787088e-07
1.56	-0.2835046134826867	0.08165809372109968	0.8314135402606393	0.787535298168927	-0.3476253021868405	-0.1126491363984835	-0.2779476365810334	0.6360537293519183	0.6360537293519201	-0.03562851303403965	-0.1641951474610636	0.2400225692324394	0.1553350545020847	0.4434874575054985	0.2581847131568341	0.3799155963131315	-2.104338909978908	0.06681501609008636	-0.5664746458521158	0.6914013662890572	-2.089443297164808	-2.08944329716471	-0.2340249635587383	0.07421934577782896	-0.5745329051446969	-0.137333642727802	-0.09436383864344301	0.06992304480306413	0.002355267325294359	-0.1080362835123628	-0.03400397119731136	-0.02137130872358476	0.0963504360975504	-36.30790122793081	14.68214242482223	-1.529001062125564	1.158617151504668	-416.8377519951835	-25.9533981675368	-17.28075626906379	0.1861315370596811	0.2579862962940893	-0.969460678605682	0.08167953754999327	0.2698140215738766	0.2107372035193484	0.8956863015097779	0.05146948057357267	0.05146948057357247	-0.2541843785027192	0.460112694215802	-0.1587199103903189	0.3959850153630028	-1.05096617071797e-07	4.12591685497337e-06	-7.364128076588387e-07	5.407695742156963e-07	2.770877831100358e-07	2.189883879388839e-06	3.765749706961983e-07
1.57	-0.2790609996129749	0.08425234035630731	0.8351636153410151	0.7664987021014347	-0.3469439052530839	-0.1183103363725943	-0.2709905108132958	0.6151647898379843	0.6151647898379785	-0.03797767865592694	-0.1634367216833064	0.2342702295704934	0.1539815574993818	0.4451536224243424	0.2606085389833714	0.3700384323266768	-2.102659842771104	0.06944899038650243	-0.5656863065612057	0.6998782654500207	-2.088027744134196	-2.08802774413412	-0.2358037765979489	0.07745786067612076	-0.575838579110731	-0.1333608045578811	-0.09027208985522646	0.06801276516758158	0.003017104710383705	-0.1059813159804622	-0.03323941902968032	-0.0225959367222931	0.09289762528112006	-36.03377968701131	14.99614788814901	-1.38504790570451	1.29121963342216	-414.8522796673493	-26.05775193780262	-18.04427368001782	0.144553770224454	0.2263369776117038	-1.006053565958093	0.2590233549493389	0.256901320112624	0.02483228875521028	0.8018634518874515	0.2340967459120065	0.2340967459088451	-0.1380570858270155	0.254962087153614	-0.1018637021767656	0.3975233835006495	-3.442278652749573e-07	5.128657651892211e-06	1.127407722343096e-06	7.290371449493997e-07	-9.292331988497942e-08	1.714818567107949e-06	2.349815685204167e-07
1.58	-0.2746031851339044	0.08686917650013587	0.8388130769200679	0.7454884973145237	-0.3462368261390877	-0.12396126295442	-0.2639529817082496	0.5942995055606676	0.594299505560677	-0.0403442978719954	-0.1626460625166894	0.2285077586563952	0.1526677069115166	0.4463275793803316	0.2627026148810213	0.3597928960485643	-2.099060653861132	0.07195145214042879	-0.5644199673951653	0.7074820337509111	-2.084712249839302	-2.084712249839248	-0.2375156824050365	0.08066602355512649	-0.5765591555754382	-0.1294043597602	-0.08618034106697438	0.06610248553203615	0.003678942095659693	-0.1039263484485747	-0.03247486686206331	-0.02382056472105162	0.08944481446473994	-35.76458330322913	15.31340711493622	-1.244345740361216	1.440381804002452	-412.9366037442593	-26.15364777868151	-18.77890266641259	0.08768994448861699	0.1920363105166844	-1.043135136937251	0.4657038779836495	0.2435115130759506	0.3063371785453694	0.7210601294950512	0.4314577334300178	0.431457733430019	-0.2408029320780802	0.454042290358641	-0.04170041012486909	0.3927063409151069	-4.853677237994289e-07	5.579507499299916e-06	2.240494524939729e-06	8.195035592372241e-07	-3.299014573696985e-07	1.326418285484838e-06	1.408405551924274e-07
1.59	-0.2701363257472967	0.08950524149652968	0.8423583414158312	0.7245243062783839	-0.3455049432523806	-0.129597484603119	-0.2568436752307801	0.5734770697598407	0.5734770697598418	-0.04272681417747223	-0.1618234549160569	0.2227411485873902	0.1513939402150735	0.4469535799973385	0.2644490875633613	0.3492119639209056	-2.093444445352952	0.07442490128615301	-0.5628110816340085	0.714227197125729	-2.079458773358095	-2.079458773358014	-0.2389167142603845	0.08380303781639395	-0.5766652330534483	-0.1253247786490421	-0.08210299373622754	0.06428628690475667	0.004180736624998161	-0.1019440891121424	-0.03165910705395427	-0.02505966538828565	0.08601607609814717	-35.49652219314439	15.64317333553231	-1.112516026791376	1.577438260547395	-411.3119559169582	-26.25089300507191	-19.47937361611794	0.03639267279764487	0.1569086327342097	-1.072862121520395	0.6594746673840728	0.2482609761438169	0.09016733230918028	0.6284347486169475	0.619694475352196	0.6196944753560278	-0.07817015300555182	0.2361073040054112	0.0197190310247825	0.4181335043733924	-4.935192677599731e-07	5.281362486656835e-06	2.334728411772078e-06	7.7723983263422e-07	-3.86334855947597e-07	1.055634831182992e-06	1.110992124435814e-07
